<?xml version="1.0" encoding="utf-8"?>
<!-- Generator: Adobe Illustrator 19.2.1, SVG Export Plug-In . SVG Version: 6.00 Build 0)  -->
<svg version="1.1" id="Calque_1" xmlns="http://www.w3.org/2000/svg" xmlns:xlink="http://www.w3.org/1999/xlink" x="0px" y="0px"
	 viewBox="0 0 280 55" style="enable-background:new 0 0 280 55;" xml:space="preserve">
<style type="text/css">
	.st0{fill:#636362;}
	.st1{fill:#B21629;}
</style>
<g>
	<rect x="41.3" class="st0" width="0.5" height="55"/>
	<g>
		<path class="st0" d="M62.1,19.6c-0.3-0.2-0.7-0.4-1-0.5S60.4,19,60,19c-0.5,0-0.9,0.1-1.3,0.3c-0.4,0.2-0.8,0.4-1,0.7
			c-0.3,0.3-0.5,0.7-0.7,1.1s-0.2,0.9-0.2,1.4s0.1,0.9,0.2,1.4c0.2,0.4,0.4,0.8,0.7,1.1c0.3,0.3,0.6,0.6,1,0.7
			c0.4,0.2,0.8,0.3,1.3,0.3c0.4,0,0.7-0.1,1.1-0.2c0.4-0.1,0.7-0.3,1-0.5l0.4,0.7c-0.4,0.2-0.8,0.4-1.2,0.6s-0.9,0.2-1.3,0.2
			c-0.6,0-1.2-0.1-1.7-0.3c-0.5-0.2-1-0.5-1.4-0.9s-0.7-0.8-0.9-1.4c-0.2-0.5-0.3-1.1-0.3-1.8c0-0.6,0.1-1.2,0.3-1.7s0.5-1,0.9-1.4
			s0.9-0.7,1.4-0.9c0.5-0.2,1.1-0.3,1.7-0.3c0.5,0,0.9,0.1,1.4,0.2c0.4,0.1,0.8,0.3,1.2,0.5L62.1,19.6z"/>
		<path class="st0" d="M64.4,18.3h1V22h4.5v-3.7h1l-0.1,8.3h-1v-3.8h-4.5v3.8h-1L64.4,18.3z"/>
		<path class="st0" d="M76.2,18.3h1l3.3,8.1l-1,0.3l-1.1-2.9H75l-1.2,2.9l-1-0.3L76.2,18.3z M76.6,19.3L76.6,19.3L75.2,23H78
			L76.6,19.3z"/>
		<path class="st0" d="M83.5,18.3h1.1l2.5,7l2.7-7h1.1l1.3,8.3l-1,0.2l-1.1-7.1l0,0l-2.6,6.9h-1l-2.4-6.9l0,0L83,26.8l-1-0.2
			L83.5,18.3z"/>
		<path class="st0" d="M94.4,18.3h2.3c0.5,0,0.8,0.1,1.2,0.2c0.3,0.1,0.6,0.3,0.8,0.5s0.3,0.4,0.4,0.6s0.1,0.5,0.1,0.7
			c0,0.5-0.1,0.9-0.4,1.2c-0.2,0.3-0.6,0.5-1.1,0.7l0,0c0.5,0.1,0.9,0.3,1.2,0.7c0.3,0.4,0.4,0.8,0.4,1.3c0,0.7-0.2,1.3-0.7,1.7
			c-0.5,0.4-1.1,0.6-2,0.6h-2.3L94.4,18.3z M95.3,25.8h1.2c0.5,0,0.9-0.1,1.3-0.4c0.3-0.2,0.5-0.7,0.5-1.2s-0.2-0.9-0.5-1.1
			c-0.3-0.3-0.8-0.4-1.4-0.4h-1L95.3,25.8z M95.4,21.9h0.8c0.7,0,1.2-0.1,1.5-0.4s0.4-0.6,0.4-1c0-0.5-0.1-0.8-0.4-1.1
			c-0.3-0.2-0.8-0.4-1.4-0.4h-0.8L95.4,21.9z"/>
		<path class="st0" d="M101.6,18.3h2.5c0.4,0,0.8,0.1,1.1,0.2c0.3,0.1,0.6,0.2,0.8,0.4c0.2,0.2,0.4,0.4,0.5,0.7
			c0.1,0.3,0.2,0.6,0.2,0.9s-0.1,0.6-0.2,0.9s-0.3,0.5-0.4,0.7c-0.2,0.2-0.4,0.4-0.7,0.5c-0.3,0.1-0.5,0.2-0.8,0.2l0,0
			c0.1,0,0.3,0.1,0.4,0.2s0.3,0.2,0.4,0.3c0.1,0.1,0.2,0.3,0.3,0.4c0.1,0.1,0.2,0.3,0.3,0.4l1.7,2.2l-0.9,0.6l-2-2.7
			c-0.1-0.2-0.2-0.3-0.3-0.5c-0.1-0.1-0.2-0.3-0.3-0.4s-0.2-0.2-0.4-0.2c-0.1-0.1-0.3-0.1-0.5-0.1h-0.7v3.6h-1V18.3z M102.6,22.3h1
			c0.3,0,0.5,0,0.8-0.1c0.2-0.1,0.5-0.1,0.7-0.3c0.2-0.1,0.4-0.3,0.5-0.5s0.2-0.5,0.2-0.8c0-0.2,0-0.4-0.1-0.6s-0.2-0.4-0.3-0.5
			c-0.1-0.2-0.3-0.3-0.6-0.4c-0.2-0.1-0.5-0.1-0.9-0.1h-1.2L102.6,22.3z"/>
		<path class="st0" d="M109.5,18.3h4.3v0.9h-3.3V22h3.2v0.9h-3.2v2.9h3.3v0.9h-4.4L109.5,18.3z"/>
		<path class="st0" d="M120.1,18.3h2.5c0.8,0,1.5,0.1,2.1,0.3c0.6,0.2,1,0.5,1.4,0.9s0.6,0.8,0.8,1.3c0.2,0.5,0.3,1,0.3,1.5
			c0,0.7-0.1,1.3-0.4,1.9c-0.2,0.5-0.6,1-1,1.3c-0.4,0.4-0.9,0.6-1.5,0.8c-0.6,0.2-1.2,0.3-1.9,0.3H120L120.1,18.3z M121,25.8h1.1
			c0.6,0,1.1-0.1,1.6-0.2s0.9-0.4,1.2-0.6c0.3-0.3,0.6-0.6,0.8-1.1c0.2-0.4,0.3-0.9,0.3-1.5c0-0.5-0.1-1-0.3-1.4
			c-0.2-0.4-0.4-0.8-0.7-1c-0.3-0.3-0.7-0.5-1.2-0.6s-1-0.2-1.5-0.2H121V25.8z"/>
		<path class="st0" d="M129.3,18.3h4.3v0.9h-3.3V22h3.2v0.9h-3.2v2.9h3.3v0.9h-4.4L129.3,18.3z"/>
		<path class="st0" d="M135.8,25.4c0.2,0.2,0.5,0.3,0.8,0.4s0.6,0.2,1,0.2c0.5,0,0.9-0.1,1.2-0.4s0.5-0.6,0.5-1.1
			c0-0.4-0.1-0.6-0.3-0.8c-0.2-0.2-0.4-0.4-0.7-0.5s-0.6-0.3-0.9-0.4c-0.3-0.1-0.6-0.3-0.9-0.5c-0.3-0.2-0.5-0.4-0.7-0.7
			c-0.2-0.3-0.3-0.7-0.3-1.2c0-0.3,0.1-0.6,0.2-0.9c0.1-0.3,0.3-0.5,0.5-0.7s0.5-0.3,0.8-0.5c0.3-0.1,0.6-0.2,1-0.2s0.8,0.1,1.2,0.2
			s0.7,0.3,1.1,0.5l-0.4,0.8c-0.2-0.2-0.5-0.3-0.8-0.4s-0.6-0.2-1-0.2c-0.2,0-0.4,0-0.5,0.1c-0.2,0.1-0.3,0.1-0.5,0.3
			c-0.1,0.1-0.3,0.3-0.4,0.5c-0.1,0.2-0.1,0.4-0.1,0.6c0,0.3,0.1,0.6,0.3,0.8c0.2,0.2,0.4,0.4,0.7,0.5c0.3,0.2,0.6,0.3,0.9,0.4
			c0.3,0.1,0.6,0.3,0.9,0.5c0.3,0.2,0.5,0.4,0.7,0.7c0.2,0.3,0.3,0.6,0.3,1.1c0,0.3-0.1,0.6-0.2,0.9c-0.1,0.3-0.3,0.5-0.5,0.8
			c-0.2,0.2-0.5,0.4-0.8,0.5s-0.7,0.2-1.2,0.2s-0.9-0.1-1.2-0.2c-0.4-0.1-0.7-0.3-1.1-0.5L135.8,25.4z"/>
		<path class="st0" d="M146.4,18.3h2.5c0.8,0,1.5,0.1,2.1,0.3c0.6,0.2,1,0.5,1.4,0.9s0.6,0.8,0.8,1.3s0.3,1,0.3,1.5
			c0,0.7-0.1,1.3-0.4,1.9c-0.2,0.5-0.6,1-1,1.3c-0.4,0.4-0.9,0.6-1.5,0.8c-0.6,0.2-1.2,0.3-1.9,0.3h-2.3L146.4,18.3z M147.4,25.8
			h1.1c0.6,0,1.1-0.1,1.6-0.2s0.9-0.4,1.2-0.6c0.3-0.3,0.6-0.6,0.8-1.1c0.2-0.4,0.3-0.9,0.3-1.5c0-0.5-0.1-1-0.3-1.4s-0.4-0.8-0.7-1
			c-0.3-0.3-0.7-0.5-1.2-0.6s-1-0.2-1.5-0.2h-1.3L147.4,25.8z"/>
		<path class="st0" d="M155.6,18.3h4.3v0.9h-3.3V22h3.2v0.9h-3.2v2.9h3.3v0.9h-4.4L155.6,18.3z M157.9,16.1h1.3l-1.6,1.7h-0.8
			L157.9,16.1z"/>
		<path class="st0" d="M162.2,18.3h2.5c0.4,0,0.8,0.1,1.1,0.2s0.6,0.3,0.8,0.4c0.2,0.2,0.4,0.5,0.5,0.8s0.2,0.6,0.2,1
			c0,0.5-0.1,0.9-0.3,1.2c-0.2,0.3-0.4,0.6-0.7,0.8c-0.3,0.2-0.6,0.3-0.9,0.4c-0.3,0.1-0.7,0.1-1,0.1h-1.2v3.4h-1L162.2,18.3z
			 M163.2,22.4h1.3c0.2,0,0.4,0,0.6-0.1c0.2-0.1,0.4-0.2,0.6-0.3c0.2-0.1,0.3-0.3,0.4-0.5c0.1-0.2,0.2-0.5,0.2-0.8
			c0-0.2,0-0.4-0.1-0.6s-0.2-0.4-0.3-0.5c-0.1-0.2-0.3-0.3-0.6-0.4c-0.2-0.1-0.5-0.1-0.9-0.1h-1.2V22.4z"/>
		<path class="st0" d="M175.8,18.3v5.2c0,0.7-0.1,1.2-0.3,1.6s-0.5,0.8-0.8,1s-0.7,0.4-1.1,0.5c-0.4,0.1-0.8,0.1-1.2,0.1
			s-0.9-0.1-1.3-0.2c-0.4-0.1-0.7-0.3-1-0.6c-0.3-0.3-0.5-0.6-0.7-1s-0.3-1-0.3-1.6c0-0.3,0-0.7,0-1.1s0-0.8,0-1.2v-2.9h1v3.1
			c0,0.4,0,0.8,0,1.2c0,0.4,0,0.8,0,1.2c0,0.8,0.2,1.3,0.6,1.7s0.9,0.5,1.7,0.5c0.3,0,0.6,0,0.9-0.1c0.3-0.1,0.5-0.2,0.7-0.4
			c0.2-0.2,0.4-0.4,0.5-0.8c0.1-0.3,0.2-0.7,0.2-1.2v-5.1L175.8,18.3L175.8,18.3z"/>
		<path class="st0" d="M177.5,18.3h6.3v0.9h-2.6l-0.1,7.4h-1l0.1-7.4h-2.6L177.5,18.3L177.5,18.3z"/>
		<path class="st0" d="M185.6,18.3h4.3v0.9h-3.3V22h3.2v0.9h-3.2v2.9h3.3v0.9h-4.4L185.6,18.3z M187.9,16.1h1.3l-1.6,1.7h-0.8
			L187.9,16.1z"/>
		<path class="st0" d="M192.1,25.4c0.2,0.2,0.5,0.3,0.8,0.4s0.6,0.2,1,0.2c0.5,0,0.9-0.1,1.2-0.4s0.5-0.6,0.5-1.1
			c0-0.4-0.1-0.6-0.3-0.8c-0.2-0.2-0.4-0.4-0.7-0.5s-0.6-0.3-0.9-0.4c-0.3-0.1-0.6-0.3-0.9-0.5c-0.3-0.2-0.5-0.4-0.7-0.7
			c-0.2-0.3-0.3-0.7-0.3-1.2c0-0.3,0.1-0.6,0.2-0.9c0.1-0.3,0.3-0.5,0.5-0.7s0.5-0.3,0.8-0.5c0.3-0.1,0.6-0.2,1-0.2s0.8,0.1,1.2,0.2
			s0.7,0.3,1.1,0.5l-0.4,0.8c-0.2-0.2-0.5-0.3-0.8-0.4s-0.6-0.2-1-0.2c-0.2,0-0.4,0-0.5,0.1c-0.2,0.1-0.3,0.1-0.5,0.3
			c-0.1,0.1-0.3,0.3-0.4,0.5c-0.1,0.2-0.1,0.4-0.1,0.6c0,0.3,0.1,0.6,0.3,0.8c0.2,0.2,0.4,0.4,0.7,0.5c0.3,0.2,0.6,0.3,0.9,0.4
			c0.3,0.1,0.6,0.3,0.9,0.5c0.3,0.2,0.5,0.4,0.7,0.7c0.2,0.3,0.3,0.6,0.3,1.1c0,0.3-0.1,0.6-0.2,0.9c-0.1,0.3-0.3,0.5-0.5,0.8
			c-0.2,0.2-0.5,0.4-0.8,0.5s-0.7,0.2-1.2,0.2s-0.9-0.1-1.2-0.2c-0.4-0.1-0.7-0.3-1.1-0.5L192.1,25.4z"/>
		<path class="st0" d="M56,32.7h2.5c0.8,0,1.5,0.1,2.1,0.3s1,0.5,1.4,0.9s0.6,0.8,0.8,1.3s0.3,1,0.3,1.5c0,0.7-0.1,1.3-0.4,1.9
			c-0.2,0.5-0.6,1-1,1.3c-0.4,0.4-0.9,0.6-1.5,0.8S59,41,58.3,41H56V32.7z M57,40.2h1.1c0.6,0,1.1-0.1,1.6-0.2s0.9-0.4,1.2-0.6
			c0.3-0.3,0.6-0.6,0.8-1.1c0.2-0.4,0.3-0.9,0.3-1.5c0-0.5-0.1-1-0.3-1.4s-0.4-0.8-0.7-1c-0.3-0.3-0.7-0.5-1.2-0.6s-1-0.2-1.5-0.2
			H57L57,40.2z"/>
		<path class="st0" d="M71.8,32.7v5.2c0,0.7-0.1,1.2-0.3,1.6c-0.2,0.4-0.5,0.8-0.8,1S70,40.9,69.6,41s-0.8,0.1-1.2,0.1
			c-0.4,0-0.9-0.1-1.3-0.2c-0.4-0.1-0.7-0.3-1-0.6s-0.5-0.6-0.7-1s-0.3-1-0.3-1.6c0-0.3,0-0.7,0-1.1c0-0.4,0-0.8,0-1.2v-2.9h1v3.1
			c0,0.4,0,0.8,0,1.2s0,0.8,0,1.2c0,0.8,0.2,1.3,0.6,1.7s1,0.5,1.7,0.5c0.3,0,0.6,0,0.9-0.1s0.5-0.2,0.7-0.4s0.4-0.4,0.5-0.8
			c0.1-0.3,0.2-0.7,0.2-1.2v-5.1L71.8,32.7L71.8,32.7z"/>
		<path class="st0" d="M85.1,36.8v3.8c-0.5,0.2-1,0.4-1.4,0.5c-0.5,0.1-0.9,0.1-1.3,0.1c-0.6,0-1.2-0.1-1.7-0.3s-1-0.5-1.4-0.9
			s-0.7-0.8-0.9-1.4c-0.2-0.5-0.3-1.1-0.3-1.8c0-0.6,0.1-1.2,0.3-1.7c0.2-0.5,0.5-1,0.9-1.4s0.9-0.7,1.4-0.9s1.1-0.3,1.7-0.3
			c0.4,0,0.9,0.1,1.3,0.2s0.9,0.2,1.2,0.4L84.5,34c-0.3-0.2-0.6-0.3-1-0.4c-0.4-0.1-0.8-0.1-1.2-0.1c-0.5,0-0.9,0.1-1.3,0.3
			s-0.8,0.4-1,0.7c-0.3,0.3-0.5,0.7-0.7,1.1c-0.2,0.4-0.2,0.9-0.2,1.4s0.1,0.9,0.2,1.4c0.2,0.4,0.4,0.8,0.7,1.1
			c0.3,0.3,0.6,0.6,1,0.7c0.4,0.2,0.8,0.3,1.3,0.3c0.3,0,0.6,0,0.9-0.1s0.6-0.1,0.8-0.3v-3.2h1.1V36.8z"/>
		<path class="st0" d="M87.6,32.7h2.5c0.4,0,0.8,0.1,1.1,0.2c0.3,0.1,0.6,0.2,0.8,0.4c0.2,0.2,0.4,0.4,0.5,0.7s0.2,0.6,0.2,0.9
			c0,0.3-0.1,0.6-0.2,0.9c-0.1,0.3-0.3,0.5-0.4,0.7c-0.2,0.2-0.4,0.4-0.7,0.5c-0.3,0.1-0.5,0.2-0.8,0.2l0,0c0.1,0,0.3,0.1,0.4,0.2
			c0.1,0.1,0.3,0.2,0.4,0.3s0.2,0.3,0.3,0.4c0.1,0.1,0.2,0.3,0.3,0.4l1.7,2.2l-0.9,0.6l-2-2.7c-0.1-0.2-0.2-0.3-0.3-0.5
			c-0.1-0.1-0.2-0.3-0.3-0.4c-0.1-0.1-0.2-0.2-0.4-0.2c-0.1-0.1-0.3-0.1-0.5-0.1h-0.7V41h-1V32.7z M88.6,36.7h1c0.3,0,0.5,0,0.8-0.1
			c0.2-0.1,0.5-0.1,0.7-0.3c0.2-0.1,0.4-0.3,0.5-0.5s0.2-0.5,0.2-0.8c0-0.2,0-0.4-0.1-0.6c-0.1-0.2-0.2-0.4-0.3-0.5
			c-0.1-0.2-0.3-0.3-0.6-0.4c-0.2-0.1-0.5-0.1-0.9-0.1h-1.2L88.6,36.7z"/>
		<path class="st0" d="M98.5,32.7h1l3.3,8.1l-1,0.3l-1.1-2.9h-3.4l-1.2,2.9l-1-0.3L98.5,32.7z M98.9,33.7L98.9,33.7l-1.4,3.7h2.7
			L98.9,33.7z"/>
		<path class="st0" d="M104.5,32.9l0.9-0.4l4.6,6.7l0,0v-6.6h1l-0.1,8.1L110,41l-4.6-6.8l0,0v6.6h-1L104.5,32.9z"/>
		<path class="st0" d="M113.8,32.7h2.5c0.8,0,1.5,0.1,2.1,0.3s1,0.5,1.4,0.9s0.6,0.8,0.8,1.3c0.2,0.5,0.3,1,0.3,1.5
			c0,0.7-0.1,1.3-0.4,1.9c-0.2,0.5-0.6,1-1,1.3c-0.4,0.4-0.9,0.6-1.5,0.8s-1.2,0.3-1.9,0.3h-2.3V32.7z M114.7,40.2h1.1
			c0.6,0,1.1-0.1,1.6-0.2s0.9-0.4,1.2-0.6c0.3-0.3,0.6-0.6,0.8-1.1c0.2-0.4,0.3-0.9,0.3-1.5c0-0.5-0.1-1-0.3-1.4
			c-0.2-0.4-0.4-0.8-0.7-1c-0.3-0.3-0.7-0.5-1.2-0.6s-1-0.2-1.5-0.2h-1.3V40.2z"/>
		<path class="st0" d="M127,32.7h2.5c0.8,0,1.5,0.1,2.1,0.3s1,0.5,1.4,0.9s0.6,0.8,0.8,1.3s0.3,1,0.3,1.5c0,0.7-0.1,1.3-0.4,1.9
			c-0.2,0.5-0.6,1-1,1.3c-0.4,0.4-0.9,0.6-1.5,0.8S130,41,129.3,41H127L127,32.7z M127.9,40.2h1.1c0.6,0,1.1-0.1,1.6-0.2
			c0.5-0.1,0.9-0.4,1.2-0.6c0.3-0.3,0.6-0.6,0.8-1.1c0.2-0.4,0.3-0.9,0.3-1.5c0-0.5-0.1-1-0.3-1.4s-0.4-0.8-0.7-1
			c-0.3-0.3-0.7-0.5-1.2-0.6s-1-0.2-1.5-0.2H128L127.9,40.2z"/>
		<path class="st0" d="M142.7,32.7v5.2c0,0.7-0.1,1.2-0.3,1.6c-0.2,0.4-0.5,0.8-0.8,1s-0.7,0.4-1.1,0.5c-0.4,0.1-0.8,0.1-1.2,0.1
			s-0.9-0.1-1.3-0.2c-0.4-0.1-0.7-0.3-1-0.6s-0.5-0.6-0.7-1s-0.3-1-0.3-1.6c0-0.3,0-0.7,0-1.1c0-0.4,0-0.8,0-1.2v-2.9h1v3.1
			c0,0.4,0,0.8,0,1.2s0,0.8,0,1.2c0,0.8,0.2,1.3,0.6,1.7c0.4,0.4,1,0.5,1.7,0.5c0.3,0,0.6,0,0.9-0.1c0.3-0.1,0.5-0.2,0.7-0.4
			s0.4-0.4,0.5-0.8c0.1-0.3,0.2-0.7,0.2-1.2v-5.1L142.7,32.7L142.7,32.7z"/>
		<path class="st0" d="M151.4,34c-0.3-0.2-0.7-0.4-1-0.5s-0.7-0.1-1.1-0.1c-0.5,0-0.9,0.1-1.3,0.3c-0.4,0.2-0.8,0.4-1,0.7
			c-0.3,0.3-0.5,0.7-0.7,1.1c-0.2,0.4-0.2,0.9-0.2,1.4s0.1,0.9,0.2,1.4c0.2,0.4,0.4,0.8,0.7,1.1s0.6,0.6,1,0.7
			c0.4,0.2,0.8,0.3,1.3,0.3c0.4,0,0.7-0.1,1.1-0.2c0.4-0.1,0.7-0.3,1-0.5l0.4,0.7c-0.4,0.2-0.8,0.4-1.2,0.6
			c-0.4,0.2-0.9,0.2-1.3,0.2c-0.6,0-1.2-0.1-1.7-0.3s-1-0.5-1.4-0.9s-0.7-0.8-0.9-1.4c-0.2-0.5-0.3-1.1-0.3-1.8
			c0-0.6,0.1-1.2,0.3-1.7s0.5-1,0.9-1.4s0.9-0.7,1.4-0.9s1.1-0.3,1.7-0.3c0.5,0,0.9,0.1,1.4,0.2c0.4,0.1,0.8,0.3,1.2,0.5L151.4,34z"
			/>
		<path class="st0" d="M153.8,32.7h1v3.7h4.5v-3.7h1l-0.1,8.3h-1v-3.8h-4.5V41h-1L153.8,32.7z"/>
		<path class="st0" d="M163,32.7h4.3v0.9H164v2.8h3.2v0.9H164v2.9h3.3V41h-4.4L163,32.7z M122.3,36.4h3.2v0.9h-3.2V36.4z
			 M165.2,30.5h1.3l-1.6,1.7h-0.8L165.2,30.5z"/>
		<path class="st0" d="M173.5,32.7h2.5c0.8,0,1.5,0.1,2.1,0.3s1,0.5,1.4,0.9s0.6,0.8,0.8,1.3s0.3,1,0.3,1.5c0,0.7-0.1,1.3-0.4,1.9
			c-0.2,0.5-0.6,1-1,1.3c-0.4,0.4-0.9,0.6-1.5,0.8s-1.2,0.3-1.9,0.3h-2.3L173.5,32.7z M174.5,40.2h1.1c0.6,0,1.1-0.1,1.6-0.2
			c0.5-0.1,0.9-0.4,1.2-0.6c0.3-0.3,0.6-0.6,0.8-1.1c0.2-0.4,0.3-0.9,0.3-1.5c0-0.5-0.1-1-0.3-1.4s-0.4-0.8-0.7-1
			c-0.3-0.3-0.7-0.5-1.2-0.6s-1-0.2-1.5-0.2h-1.3L174.5,40.2z"/>
		<path class="st0" d="M182.7,32.7h4.3v0.9h-3.3v2.8h3.2v0.9h-3.2v2.9h3.3V41h-4.4L182.7,32.7z"/>
		<path class="st0" d="M193.2,41l0.1-8.3h1l-0.1,7.4h3.5V41H193.2z"/>
		<path class="st0" d="M206,32.7v5.2c0,0.7-0.1,1.2-0.3,1.6c-0.2,0.4-0.5,0.8-0.8,1s-0.7,0.4-1.1,0.5c-0.4,0.1-0.8,0.1-1.2,0.1
			s-0.9-0.1-1.3-0.2c-0.4-0.1-0.7-0.3-1-0.6s-0.5-0.6-0.7-1s-0.3-1-0.3-1.6c0-0.3,0-0.7,0-1.1c0-0.4,0-0.8,0-1.2v-2.9h1v3.1
			c0,0.4,0,0.8,0,1.2s0,0.8,0,1.2c0,0.8,0.2,1.3,0.6,1.7c0.4,0.4,0.9,0.5,1.7,0.5c0.3,0,0.6,0,0.9-0.1s0.5-0.2,0.7-0.4
			s0.4-0.4,0.5-0.8c0.1-0.3,0.2-0.7,0.2-1.2v-5.1L206,32.7L206,32.7z"/>
		<path class="st0" d="M210.5,36.7l-2.6-3.6l0.9-0.6l2.3,3.4l2.5-3.4l0.9,0.5l-2.7,3.7l2.9,3.9l-0.9,0.6l-2.6-3.7l-2.6,3.7l-0.9-0.6
			L210.5,36.7z"/>
		<path class="st0" d="M216.4,32.7h4.3v0.9h-3.3v2.8h3.2v0.9h-3.2v2.9h3.3V41h-4.4L216.4,32.7z"/>
		<path class="st0" d="M224,32.7h1.1l2.5,7l2.7-7h1.1l1.3,8.3l-1,0.2l-1.1-7.1l0,0L228,41h-1l-2.4-6.9l0,0l-1.1,7.1l-1-0.2L224,32.7
			z"/>
		<path class="st0" d="M234.9,32.7h2.3c0.5,0,0.8,0.1,1.2,0.2c0.3,0.1,0.6,0.3,0.8,0.5s0.3,0.4,0.4,0.6c0.1,0.2,0.1,0.5,0.1,0.7
			c0,0.5-0.1,0.9-0.4,1.2c-0.2,0.3-0.6,0.5-1.1,0.7l0,0c0.5,0.1,0.9,0.3,1.2,0.7s0.4,0.8,0.4,1.3c0,0.7-0.2,1.3-0.7,1.7
			s-1.1,0.6-2,0.6h-2.3L234.9,32.7z M235.9,40.2h1.2c0.5,0,0.9-0.1,1.3-0.4s0.5-0.7,0.5-1.2s-0.2-0.9-0.5-1.1s-0.8-0.4-1.4-0.4h-1
			L235.9,40.2z M235.9,36.3h0.8c0.7,0,1.2-0.1,1.5-0.4c0.3-0.3,0.4-0.6,0.4-1c0-0.5-0.1-0.8-0.4-1.1c-0.3-0.2-0.8-0.4-1.4-0.4H236
			L235.9,36.3z"/>
		<path class="st0" d="M241.6,36.9c0-0.6,0.1-1.2,0.3-1.7s0.5-1,0.9-1.4s0.9-0.7,1.4-0.9s1.1-0.3,1.7-0.3s1.2,0.1,1.7,0.3
			s1,0.5,1.4,0.9s0.7,0.8,0.9,1.4c0.2,0.5,0.3,1.1,0.3,1.8c0,0.6-0.1,1.2-0.3,1.8c-0.2,0.5-0.5,1-0.9,1.4s-0.9,0.7-1.4,0.9
			s-1.1,0.3-1.7,0.3s-1.2-0.1-1.7-0.3s-1-0.5-1.4-0.9s-0.7-0.8-0.9-1.4C241.7,38.2,241.6,37.6,241.6,36.9z M242.7,36.9
			c0,0.5,0.1,0.9,0.2,1.4c0.2,0.4,0.4,0.8,0.7,1.1s0.6,0.6,1,0.7c0.4,0.2,0.8,0.3,1.3,0.3s0.9-0.1,1.3-0.3c0.4-0.2,0.8-0.4,1-0.7
			c0.3-0.3,0.5-0.7,0.7-1.1c0.2-0.4,0.2-0.9,0.2-1.4s-0.1-0.9-0.2-1.4c-0.2-0.4-0.4-0.8-0.7-1.1s-0.6-0.6-1-0.7
			c-0.4-0.2-0.8-0.3-1.3-0.3s-0.9,0.1-1.3,0.3c-0.4,0.2-0.8,0.4-1,0.7c-0.3,0.3-0.5,0.7-0.7,1.1C242.8,35.9,242.7,36.4,242.7,36.9z"
			/>
		<path class="st0" d="M259.2,32.7v5.2c0,0.7-0.1,1.2-0.3,1.6c-0.2,0.4-0.5,0.8-0.8,1s-0.7,0.4-1.1,0.5s-0.8,0.1-1.2,0.1
			c-0.4,0-0.9-0.1-1.3-0.2c-0.4-0.1-0.7-0.3-1-0.6s-0.5-0.6-0.7-1s-0.3-1-0.3-1.6c0-0.3,0-0.7,0-1.1c0-0.4,0-0.8,0-1.2v-2.9h1v3.1
			c0,0.4,0,0.8,0,1.2s0,0.8,0,1.2c0,0.8,0.2,1.3,0.6,1.7c0.4,0.4,0.9,0.5,1.7,0.5c0.3,0,0.6,0,0.9-0.1s0.5-0.2,0.7-0.4
			s0.4-0.4,0.5-0.8c0.1-0.3,0.2-0.7,0.2-1.2v-5.1L259.2,32.7L259.2,32.7z"/>
		<path class="st0" d="M261.8,32.7h2.5c0.4,0,0.8,0.1,1.1,0.2c0.3,0.1,0.6,0.2,0.8,0.4c0.2,0.2,0.4,0.4,0.5,0.7s0.2,0.6,0.2,0.9
			c0,0.3-0.1,0.6-0.2,0.9c-0.1,0.3-0.3,0.5-0.4,0.7c-0.2,0.2-0.4,0.4-0.7,0.5c-0.3,0.1-0.5,0.2-0.8,0.2l0,0c0.1,0,0.3,0.1,0.4,0.2
			c0.1,0.1,0.2,0.2,0.4,0.3c0.1,0.1,0.2,0.3,0.3,0.4c0.1,0.1,0.2,0.3,0.3,0.4l1.7,2.2l-0.9,0.6l-2-2.7c-0.1-0.2-0.2-0.3-0.3-0.5
			c-0.1-0.1-0.2-0.3-0.3-0.4c-0.1-0.1-0.2-0.2-0.4-0.2c-0.1-0.1-0.3-0.1-0.5-0.1h-0.7V41h-1V32.7z M262.8,36.7h1
			c0.3,0,0.5,0,0.8-0.1c0.2-0.1,0.5-0.1,0.7-0.3c0.2-0.1,0.4-0.3,0.5-0.5s0.2-0.5,0.2-0.8c0-0.2,0-0.4-0.1-0.6
			c-0.1-0.2-0.2-0.4-0.3-0.5c-0.1-0.2-0.3-0.3-0.6-0.4c-0.2-0.1-0.5-0.1-0.9-0.1h-1.2L262.8,36.7z"/>
		<path class="st0" d="M276.1,36.8v3.8c-0.5,0.2-1,0.4-1.4,0.5c-0.5,0.1-0.9,0.1-1.3,0.1c-0.6,0-1.2-0.1-1.7-0.3s-1-0.5-1.4-0.9
			s-0.7-0.8-0.9-1.4c-0.2-0.5-0.3-1.1-0.3-1.8c0-0.6,0.1-1.2,0.3-1.7c0.2-0.5,0.5-1,0.9-1.4s0.9-0.7,1.4-0.9s1.1-0.3,1.7-0.3
			c0.4,0,0.9,0.1,1.3,0.2c0.4,0.1,0.9,0.2,1.2,0.4l-0.4,0.8c-0.3-0.2-0.6-0.3-1-0.4c-0.4-0.1-0.8-0.1-1.2-0.1
			c-0.5,0-0.9,0.1-1.3,0.3s-0.8,0.4-1,0.7c-0.3,0.3-0.5,0.7-0.7,1.1c-0.2,0.4-0.2,0.9-0.2,1.4s0.1,0.9,0.2,1.4
			c0.2,0.4,0.4,0.8,0.7,1.1c0.3,0.3,0.6,0.6,1,0.7c0.4,0.2,0.8,0.3,1.3,0.3c0.3,0,0.6,0,0.9-0.1s0.6-0.1,0.8-0.3v-3.2
			C275,36.8,276.1,36.8,276.1,36.8z"/>
	</g>
	<g>
		<rect y="25.3" class="st0" width="2" height="1.7"/>
		<rect x="25.9" y="25.3" class="st0" width="2" height="1.7"/>
		<rect x="3.8" y="25.3" class="st0" width="20.2" height="1.7"/>
	</g>
	<g>
		<rect y="28.4" class="st1" width="2" height="13"/>
		<rect x="25.9" y="28.4" class="st1" width="2" height="13"/>
		<rect y="16.8" class="st1" width="2" height="7.3"/>
		<rect x="25.9" y="16.8" class="st1" width="2" height="7.3"/>
		<polygon class="st1" points="24,24 24,16.8 3.8,16.8 3.8,24 6.6,24 6.6,18.6 8.8,18.6 8.8,24 13,24 13,18.6 15.3,18.6 15.3,24 
			18.8,24 18.8,18.6 21,18.6 21,24 		"/>
		<path class="st1" d="M3.8,41.4l6.5-5.6h1.9V30h3.2v5.9h2.2l6.5,5.6V28.4H3.8V41.4z M18.8,30H21v4.9h-2.2V30z M6.6,30h2.2v4.9H6.6
			V30z"/>
		<polygon class="st1" points="17.3,37.9 17,37.7 16.8,37.7 11.3,37.7 11,37.7 10.8,37.9 4.3,43.3 0,43.3 0,44.8 27.7,44.8 
			27.7,43.4 23.7,43.4 		"/>
		<path class="st1" d="M25.9,12.2v2.4l-8.3-2.1v-2.4L14.4,9V8.9c0-0.4-0.3-0.7-0.7-0.7S13,8.5,13,8.9V9l-3.2,1.1v2.5l-7.8,2v-2.3
			l-2-1.5v4.8h0.1H2h23.9h1.6h0.3v-4.9L25.9,12.2z"/>
	</g>
</g>
</svg>
